<?xml version="1.0" encoding="utf-8"?>
<!-- Generator: Adobe Illustrator 24.0.0, SVG Export Plug-In . SVG Version: 6.00 Build 0)  -->
<svg version="1.1" id="Camada_1" xmlns="http://www.w3.org/2000/svg" xmlns:xlink="http://www.w3.org/1999/xlink" x="0px" y="0px"
	 viewBox="0 0 537.99 282.99" style="enable-background:new 0 0 537.99 282.99;" xml:space="preserve">
<style type="text/css">
	.st0{fill:#2196F3;}
</style>
<g>
	<g id="g142_1_">
		<path id="C-head_1_" class="st0" d="M410.55,158.96c9.72,4.78,14.2,13.53,10.02,19.54c-4.18,6.01-15.43,7.01-25.15,2.23
			c-9.72-4.78-14.2-13.53-10.02-19.54C389.59,155.18,400.84,154.18,410.55,158.96z"/>
		<g id="C-body_1_">
			<g id="frame_1_">
				<path id="path138_1_" class="st0" d="M495.34,210.11c-44.28-3.25-83.5-15.15-111.67-32.44c-15.85-9.74-61.12-32.74-61.05-65.04
					c0.05-28.17,31.38-53.95,43.63-64.33c38.1-32.28,103.54-35.16,131.64-36.81c0-1.28-2.32-5.97-2.32-5.97
					c-63.05,0-119.48,14.76-157.22,37.99c-30.31,18.66-48.57,42.77-48.57,69.11s18.28,50.47,48.57,69.11
					c37.71,23.21,94.03,37.96,156.97,37.99c0.16,0,0.28-0.11,0.28-0.23v-9.17C495.59,210.22,495.48,210.11,495.34,210.11z"/>
			</g>
		</g>
	</g>
	<path id="A-head_1_" class="st0" d="M224.22,168.04c1.6,9.37-3.73,17.78-11.91,18.78c-8.19,1-16.13-5.8-17.73-15.17
		c-1.62-9.37,3.73-17.78,11.91-18.78C214.66,151.88,222.6,158.68,224.22,168.04z"/>
	<path id="A-arm_1_" class="st0" d="M54.55,183.75c0,0,2.92-2.41,2.39-9.07c-0.21-2.72,18.06-6.5,21.09-7.52
		c56.37-18.89,114.57-43.76,111.36-72.31c-0.02-0.23,0.6-1.99,0.63-2.64c0.11-2.55,44.07,23.69,44.12,24.64
		c1.14,20.31,16.48,103.82,12.48,79.78c-4.73-28.34-35.87-60.98-37.24-60.1c-34.48,21.77-76,28.87-132.18,42.84"/>
	<path id="A-body_1_" class="st0" d="M250.84,221.2c-2.5-37.87-24.14-70.2-36.38-97.7c-6.36-14.27-24.85-21.53-24.85-33.02
		c0-19.54-6.77-52.73-26.22-53.1c-37.83-0.72-89.97,76.56-104.06,136.5c-0.91,3.92-1.04,8.26-1.79,12.32
		c-2.04,10.95-2.81,23.18-3.6,35h-7.93l0,0c0-13.97,0.63-27.64,1.86-40.87c0-0.02,0-0.04,0-0.05
		c6.45-69.41,28.98-126.87,59.2-154.92C119.85,13.49,134.02,6.9,148.92,6.9c36.76,0,69.02,40.15,87.23,100.53
		c9.93,32.97,24.71,71.98,24.71,113.76"/>
	<g>
		<g>
			<path class="st0" d="M18.9,264.85l-3.28,9.72H6.67l14.29-42.07h11.43l14.9,42.07h-9.56l-3.46-9.72H18.9z M32.31,257.4
				c-2.99-8.88-4.89-14.55-5.91-18.33h-0.06c-1.04,4.15-3.14,10.75-5.53,18.33H32.31z"/>
			<path class="st0" d="M88.7,261.6c-1.69,7.85-7.61,13.56-18.14,13.56c-13.34,0-19.65-9.44-19.65-21.41
				c0-11.53,6.51-21.87,20.08-21.87c11.2,0,16.63,6.58,17.66,13.61h-9.1c-0.88-3.24-3.14-6.47-8.85-6.47c-7.5,0-10.4,6.75-10.4,14.4
				c0,7.11,2.51,14.6,10.64,14.6c5.94,0,7.81-3.98,8.6-6.43H88.7z"/>
			<path class="st0" d="M105.32,257.73v16.84h-8.89V232.5h18.49c9.17,0,14.11,5.05,14.11,11.55c0,5.65-3.07,8.7-6.11,9.95
				c2.08,0.77,5.23,2.94,5.23,10.47v2.08c0,2.83,0.02,6.05,0.6,8.02h-8.62c-0.74-1.83-0.88-4.98-0.88-9.45v-0.61
				c0-4.6-1.16-6.78-7.94-6.78H105.32z M105.32,250.49h7.63c4.98,0,6.9-1.89,6.9-5.41c0-3.42-2.24-5.34-6.68-5.34h-7.84V250.49z"/>
			<path class="st0" d="M175.55,253.39c0,11.71-7.03,21.79-20.69,21.79c-13.2,0-20.11-9.59-20.11-21.64
				c0-12.24,7.63-21.65,20.7-21.65C167.76,231.89,175.55,240.51,175.55,253.39z M144.14,253.35c0,8.21,3.6,14.43,11.06,14.43
				c8.09,0,10.95-6.77,10.95-14.27c0-7.96-3.26-14.21-11.1-14.21C147.46,239.29,144.14,245.16,144.14,253.35z"/>
			<path class="st0" d="M216.69,263.16c-2.01,6.77-7.02,11.9-16.05,11.9c-12.27,0-18.73-9.76-18.73-21.78
				c0-11.53,6.35-22.03,18.79-22.03c9.21,0,14.64,5.13,16.05,12.26h-3.29c-1.95-5.55-5.55-9.21-12.94-9.21
				c-10.62,0-15.07,9.7-15.07,18.92c0,9.15,4.39,18.79,15.32,18.79c6.96,0,10.5-3.6,12.63-8.85H216.69z"/>
			<path class="st0" d="M261.17,252.91c0,11.66-6.22,22.27-19.4,22.27c-12.02,0-19.04-9.7-19.04-21.97
				c0-12.08,6.77-21.97,19.47-21.97C253.91,231.25,261.17,240.46,261.17,252.91z M226.27,253.03c0,9.82,5.43,19.1,15.68,19.1
				c11.04,0,15.68-9.03,15.68-19.16c0-9.95-5.25-18.67-15.56-18.67C231.09,234.3,226.27,243.39,226.27,253.03z"/>
			<path class="st0" d="M307.54,254.92c0-8.36,0.06-16.35,0.24-20.63h-0.18c-1.71,5.74-10.37,26.79-15.8,40.27h-3.23
				c-4.09-10.43-13.06-33.87-15.01-40.33h-0.12c0.3,4.88,0.43,14.83,0.43,22.15v18.18h-3.29v-42.71h4.94
				c5.86,14.64,13.24,33.8,14.83,38.63h0.12c0.98-3.11,9.52-24.41,15.5-38.63h4.88v42.71h-3.29V254.92z"/>
			<path class="st0" d="M322.79,231.86h15.26c7.81,0,13.18,4.33,13.18,11.9c0,7.69-5.31,12.2-13.61,12.2h-11.47v18.61h-3.36V231.86z
				 M326.15,252.91h11.78c6.9,0,9.76-3.66,9.76-9.03c0-5.74-3.78-8.97-9.52-8.97h-12.02V252.91z"/>
			<path class="st0" d="M364.53,259.8l-5.43,14.77h-3.36l15.68-42.71h3.91l16.35,42.71h-3.6l-5.55-14.77H364.53z M381.43,256.75
				c-4.76-12.69-7.2-18.79-8.05-21.66h-0.06c-1.04,3.23-3.78,10.8-7.63,21.66H381.43z"/>
			<path class="st0" d="M399.25,274.57v-42.71h4.88c6.65,10.25,22.27,34.11,24.96,38.75h0.06c-0.37-6.16-0.3-12.45-0.3-19.41v-19.34
				h3.36v42.71h-4.52c-6.35-9.88-22.21-34.72-25.26-39.42h-0.06c0.3,5.61,0.24,11.84,0.24,19.59v19.83H399.25z"/>
			<path class="st0" d="M447.45,231.86v42.71h-3.3v-42.71H447.45z"/>
			<path class="st0" d="M495.29,252.91c0,11.66-6.22,22.27-19.4,22.27c-12.02,0-19.04-9.7-19.04-21.97
				c0-12.08,6.77-21.97,19.47-21.97C488.03,231.25,495.29,240.46,495.29,252.91z M460.39,253.03c0,9.82,5.43,19.1,15.68,19.1
				c11.04,0,15.68-9.03,15.68-19.16c0-9.95-5.25-18.67-15.56-18.67C465.21,234.3,460.39,243.39,460.39,253.03z"/>
			<path class="st0" d="M504.68,274.57v-42.71h4.88c6.65,10.25,22.27,34.11,24.96,38.75h0.06c-0.37-6.16-0.31-12.45-0.31-19.41
				v-19.34h3.36v42.71h-4.52c-6.35-9.88-22.21-34.72-25.26-39.42h-0.06c0.31,5.61,0.24,11.84,0.24,19.59v19.83H504.68z"/>
		</g>
	</g>
</g>
</svg>
